<mxfile host="app.diagrams.net" modified="2024-03-04T09:30:59.931Z" agent="Mozilla/5.0 (Windows NT 10.0; Win64; x64) AppleWebKit/537.36 (KHTML, like Gecko) Chrome/122.0.0.0 Safari/537.36" version="24.0.1" etag="21UXdktcl_a6ixjw3l9c" type="github">
  <diagram name="Page-1" id="IBPvxLv83GTxg_9n_9WU">
    <mxGraphModel>
      <root>
        <mxCell id="0" />
        <mxCell id="1" parent="0" />
      </root>
    </mxGraphModel>
  </diagram>
</mxfile>
